<svg width="59" height="59" viewBox="0 0 59 59" fill="none" xmlns="http://www.w3.org/2000/svg">
<path d="M38.6667 20.3333L31.0283 27.9717M38.6667 20.3333V11.1667L47.8334 2V11.1667H57.0001L47.8334 20.3333H38.6667Z" stroke="#344054" stroke-width="4" stroke-linecap="round" stroke-linejoin="round"/>
<path d="M30.5091 2H29.5C24.061 2 18.7442 3.61285 14.2218 6.63458C9.69948 9.65632 6.17473 13.9512 4.09332 18.9762C2.01192 24.0012 1.46732 29.5305 2.52842 34.865C3.58951 40.1995 6.20863 45.0995 10.0546 48.9454C13.9005 52.7914 18.8005 55.4105 24.135 56.4716C29.4695 57.5327 34.9988 56.9881 40.0238 54.9067C45.0488 52.8253 49.3437 49.3005 52.3654 44.7782C55.3872 40.2558 57 34.939 57 29.5V28.4924" stroke="#306CFE" stroke-width="4" stroke-linecap="round" stroke-linejoin="round"/>
<path d="M44.4721 32.5551C43.9197 35.2593 42.6451 37.7634 40.7837 39.8013C38.9223 41.8392 36.5436 43.3348 33.9003 44.1292C31.2571 44.9236 28.448 44.9872 25.7715 44.3131C23.095 43.639 20.6512 42.2525 18.6995 40.3009C16.7479 38.3492 15.3613 35.9053 14.6873 33.2289C14.0132 30.5524 14.0767 27.7433 14.8711 25.1C15.6655 22.4568 17.1612 20.0781 19.1991 18.2167C21.237 16.3553 23.741 15.0807 26.4453 14.5283" stroke="#306CFE" stroke-width="4" stroke-linecap="round" stroke-linejoin="round"/>
</svg>
