<svg width="69" height="67" viewBox="0 0 69 67" fill="none" xmlns="http://www.w3.org/2000/svg">
<path d="M46.621 5.48242C43.3913 5.48242 40.294 6.76538 38.0103 9.04906C35.7267 11.3327 34.4437 14.4301 34.4437 17.6597V50.7634C34.4491 52.6396 34.8333 54.4954 35.5733 56.2196C36.3132 57.9438 37.3937 59.5008 38.7499 60.7973C40.1061 62.0938 41.7101 63.1032 43.4658 63.7649C45.2215 64.4266 47.0927 64.7269 48.9673 64.648C50.8418 64.5691 52.6812 64.1125 54.375 63.3056C56.0689 62.4986 57.5824 61.358 58.8248 59.9521C60.0672 58.5462 61.013 56.9038 61.6054 55.1236C62.1978 53.3433 62.4246 51.4618 62.2723 49.5917C65.1734 46.4758 67 40.382 67 35.2962C67 28.3685 63.6026 21.6301 58.7266 18.9797C58.912 17.2793 58.7371 15.5589 58.2133 13.9305C57.6895 12.3022 56.8285 10.8025 55.6864 9.5291C54.5443 8.25572 53.1467 7.23723 51.5848 6.53999C50.0228 5.84275 48.3315 5.4824 46.621 5.48242ZM22.2664 5.48242C25.496 5.48242 28.5934 6.76538 30.8771 9.04906C33.1607 11.3327 34.4437 14.4301 34.4437 17.6597V50.7634C34.4383 52.6396 34.0541 54.4954 33.3141 56.2196C32.5742 57.9438 31.4937 59.5008 30.1375 60.7973C28.7813 62.0938 27.1773 63.1032 25.4216 63.7649C23.6659 64.4266 21.7947 64.7269 19.9201 64.648C18.0456 64.5691 16.2062 64.1125 14.5124 63.3056C12.8185 62.4986 11.305 61.358 10.0626 59.9521C8.82019 58.5462 7.87444 56.9038 7.28204 55.1236C6.68964 53.3433 6.46279 51.4618 6.61508 49.5917C3.71403 46.4809 1.88232 40.382 1.88232 35.2962C1.88232 28.3685 5.28479 21.6301 10.1557 18.9797C9.97022 17.2789 10.1453 15.558 10.6694 13.9293C11.1935 12.3006 12.055 10.8007 13.1976 9.5272C14.3403 8.25373 15.7384 7.23535 17.301 6.53843C18.8636 5.84151 20.5555 5.48169 22.2664 5.48242Z" fill="#D7E0FF"/>
<path d="M34.4437 30.4511V50.7636C34.4383 52.6398 34.0541 54.4956 33.3141 56.2198C32.5742 57.9439 31.4937 59.5009 30.1375 60.7975C28.7813 62.094 27.1773 63.1034 25.4216 63.765C23.6659 64.4267 21.7947 64.7271 19.9201 64.6482C18.0456 64.5693 16.2062 64.1126 14.5124 63.3057C12.8185 62.4988 11.305 61.3582 10.0626 59.9523C8.82019 58.5463 7.87444 56.904 7.28204 55.1237C6.68964 53.3435 6.46279 51.4619 6.61508 49.5919C3.71403 46.4811 1.88232 40.3822 1.88232 35.2964C1.88232 28.3687 5.28479 21.6302 10.1557 18.9799C9.8918 16.5601 10.3591 14.1168 11.4974 11.9652C12.6357 9.81363 14.3927 8.05256 16.5416 6.90926C18.6905 5.76596 21.1327 5.29291 23.5531 5.55116C25.9735 5.8094 28.2609 6.78709 30.1203 8.35805" stroke="#4147D5" stroke-width="3" stroke-linecap="round" stroke-linejoin="round"/>
<path d="M16.5914 27.2585C14.8006 26.8492 10.7535 24.1886 10.1446 19.0107M10.3442 42.2857C8.52269 43.7234 7.0696 46.9775 6.604 49.5869M34.4429 50.7637C34.4483 52.6399 34.8325 54.4957 35.5724 56.2199C36.3124 57.9441 37.3928 59.5011 38.749 60.7976C40.1052 62.0941 41.7092 63.1035 43.4649 63.7652C45.2206 64.4269 47.0918 64.7272 48.9664 64.6483C50.841 64.5694 52.6803 64.1128 54.3742 63.3059C56.068 62.499 57.5815 61.3583 58.8239 59.9524C60.0664 58.5465 61.0121 56.9041 61.6045 55.1239C62.1969 53.3436 62.4238 51.4621 62.2715 49.592C65.1725 46.4761 66.9991 40.3823 66.9991 35.2965C66.9991 33.076 66.6512 30.8759 66.0167 28.8242" stroke="#4147D5" stroke-width="3" stroke-linecap="round" stroke-linejoin="round"/>
<path d="M58.5435 42.2847C60.3649 43.7224 61.818 46.9765 62.2836 49.5859" stroke="#4147D5" stroke-width="3" stroke-linecap="round" stroke-linejoin="round"/>
<path d="M34.8265 19.5739C33.0357 19.2567 33.0357 16.6831 34.8265 16.371C38.0061 15.8159 40.9489 14.3276 43.2803 12.0954C45.6118 9.86327 47.2267 6.98808 47.9196 3.83557L48.0219 3.33927C48.4159 1.56384 50.9383 1.54849 51.3476 3.32392L51.4756 3.90208C52.1906 7.0424 53.8187 9.90098 56.1549 12.1179C58.4911 14.3349 61.431 15.8111 64.6045 16.3607C66.4055 16.6729 66.4055 19.2669 64.6045 19.5841C61.431 20.1338 58.4911 21.61 56.1549 23.8269C53.8187 26.0439 52.1906 28.9025 51.4756 32.0428L51.3425 32.6158C50.9383 34.3862 48.4159 34.3759 48.027 32.6005L47.9196 32.1093C47.2267 28.9568 45.6118 26.0816 43.2803 23.8494C40.9489 21.6173 38.0061 20.129 34.8265 19.5739Z" fill="white"/>
<path d="M34.8265 19.5739C33.0357 19.2567 33.0357 16.6831 34.8265 16.371C38.0061 15.8159 40.9489 14.3276 43.2803 12.0954C45.6118 9.86327 47.2267 6.98808 47.9196 3.83557L48.0219 3.33927C48.4159 1.56384 50.9383 1.54849 51.3476 3.32392L51.4756 3.90208C52.1906 7.0424 53.8187 9.90098 56.1549 12.1179C58.4911 14.3349 61.431 15.8111 64.6045 16.3607C66.4055 16.6729 66.4055 19.2669 64.6045 19.5841C61.431 20.1338 58.4911 21.61 56.1549 23.8269C53.8187 26.0439 52.1906 28.9025 51.4756 32.0428L51.3425 32.6158C50.9383 34.3862 48.4159 34.3759 48.027 32.6005L47.9196 32.1093C47.2267 28.9568 45.6118 26.0816 43.2803 23.8494C40.9489 21.6173 38.0061 20.129 34.8265 19.5739Z" stroke="#4147D5" stroke-width="3" stroke-linecap="round" stroke-linejoin="round"/>
</svg>
