<svg width="60" height="60" viewBox="0 0 60 60" fill="none" xmlns="http://www.w3.org/2000/svg">
<path d="M27.2 7.6001V24.4001C27.2 27.4928 21.5588 30.0001 14.6 30.0001C7.64122 30.0001 2 27.4928 2 24.4001V7.6001" stroke="black" stroke-width="3" stroke-linecap="round" stroke-linejoin="round"/>
<path d="M27.2 16C27.2 19.0927 21.5588 21.6 14.6 21.6C7.64122 21.6 2 19.0927 2 16" stroke="black" stroke-width="3" stroke-linecap="round" stroke-linejoin="round"/>
<path d="M27.2 7.6C27.2 10.6927 21.5588 13.2 14.6 13.2C7.64122 13.2 2 10.6927 2 7.6C2 4.5072 7.64122 2 14.6 2C21.5588 2 27.2 4.5072 27.2 7.6Z" fill="#2F88FF" stroke="black" stroke-width="3" stroke-linecap="round" stroke-linejoin="round"/>
<path d="M41.2002 4.7998H49.6002C52.6929 4.7998 55.2002 7.30701 55.2002 10.3998V18.7998" stroke="black" stroke-width="3" stroke-linecap="round" stroke-linejoin="round"/>
<path d="M18.7998 55.2002H10.3998C7.30701 55.2002 4.7998 52.6929 4.7998 49.6002V41.2002" stroke="black" stroke-width="3" stroke-linecap="round" stroke-linejoin="round"/>
<path d="M45.3999 44C49.2659 44 52.3999 40.866 52.3999 37C52.3999 33.134 49.2659 30 45.3999 30C41.5339 30 38.3999 33.134 38.3999 37C38.3999 40.866 41.5339 44 45.3999 44Z" fill="#2F88FF" stroke="black" stroke-width="3" stroke-linecap="round" stroke-linejoin="round"/>
<path d="M57.9998 57.9999H32.7998C32.7998 51.0411 38.441 45.3999 45.3998 45.3999C52.3586 45.3999 57.9998 51.0411 57.9998 57.9999Z" fill="#2F88FF" stroke="black" stroke-width="3" stroke-linecap="round" stroke-linejoin="round"/>
</svg>
